<mxfile host="app.diagrams.net" modified="2021-05-20T10:01:06.112Z" agent="5.0 (Windows NT 10.0; Win64; x64) AppleWebKit/537.36 (KHTML, like Gecko) Chrome/90.0.4430.212 Safari/537.36 Edg/90.0.818.62" etag="BHMYHlS_v9gdBNSAIKb3" version="14.6.13" type="github">
  <diagram id="XS9HvS-GYPIyrF9PbO5x" name="Page-1">
    <mxGraphModel dx="868" dy="482" grid="0" gridSize="10" guides="1" tooltips="1" connect="1" arrows="1" fold="1" page="1" pageScale="1" pageWidth="850" pageHeight="1100" math="0" shadow="0">
      <root>
        <mxCell id="0" />
        <mxCell id="1" parent="0" />
        <mxCell id="aLbBH-RCHJ9UTwngSTmA-1" value="&lt;b&gt;Start&lt;/b&gt;" style="ellipse;whiteSpace=wrap;html=1;fillColor=#0050ef;strokeColor=#001DBC;fontColor=#ffffff;" vertex="1" parent="1">
          <mxGeometry x="360" y="28" width="120" height="40" as="geometry" />
        </mxCell>
        <mxCell id="aLbBH-RCHJ9UTwngSTmA-2" value="" style="endArrow=classic;html=1;exitX=0.5;exitY=1;exitDx=0;exitDy=0;" edge="1" parent="1" source="aLbBH-RCHJ9UTwngSTmA-1">
          <mxGeometry width="50" height="50" relative="1" as="geometry">
            <mxPoint x="400" y="128" as="sourcePoint" />
            <mxPoint x="420" y="88" as="targetPoint" />
          </mxGeometry>
        </mxCell>
        <mxCell id="aLbBH-RCHJ9UTwngSTmA-3" value="&lt;b&gt;Initialize&lt;/b&gt;" style="rounded=0;whiteSpace=wrap;html=1;fillColor=#1ba1e2;strokeColor=#006EAF;fontColor=#ffffff;" vertex="1" parent="1">
          <mxGeometry x="360" y="88" width="120" height="40" as="geometry" />
        </mxCell>
        <mxCell id="aLbBH-RCHJ9UTwngSTmA-4" value="" style="endArrow=classic;html=1;" edge="1" parent="1">
          <mxGeometry width="50" height="50" relative="1" as="geometry">
            <mxPoint x="420" y="128" as="sourcePoint" />
            <mxPoint x="420" y="148" as="targetPoint" />
          </mxGeometry>
        </mxCell>
        <mxCell id="aLbBH-RCHJ9UTwngSTmA-5" value="&lt;b&gt;Get(time)&lt;/b&gt;" style="rounded=0;whiteSpace=wrap;html=1;fillColor=#1ba1e2;strokeColor=#006EAF;fontColor=#ffffff;" vertex="1" parent="1">
          <mxGeometry x="360" y="148" width="120" height="40" as="geometry" />
        </mxCell>
        <mxCell id="aLbBH-RCHJ9UTwngSTmA-6" value="" style="endArrow=classic;html=1;exitX=0.5;exitY=1;exitDx=0;exitDy=0;" edge="1" parent="1" source="aLbBH-RCHJ9UTwngSTmA-5">
          <mxGeometry width="50" height="50" relative="1" as="geometry">
            <mxPoint x="420" y="248" as="sourcePoint" />
            <mxPoint x="420" y="208" as="targetPoint" />
          </mxGeometry>
        </mxCell>
        <mxCell id="aLbBH-RCHJ9UTwngSTmA-7" value="&lt;b&gt;Tính toán :&lt;br&gt;-Speed(time)&lt;br&gt;-Route(time)&lt;/b&gt;" style="rounded=0;whiteSpace=wrap;html=1;fillColor=#1ba1e2;strokeColor=#006EAF;fontColor=#ffffff;" vertex="1" parent="1">
          <mxGeometry x="360" y="208" width="120" height="60" as="geometry" />
        </mxCell>
        <mxCell id="aLbBH-RCHJ9UTwngSTmA-8" value="" style="edgeStyle=elbowEdgeStyle;elbow=vertical;endArrow=classic;html=1;exitX=1.006;exitY=0.535;exitDx=0;exitDy=0;entryX=1;entryY=0.382;entryDx=0;entryDy=0;entryPerimeter=0;exitPerimeter=0;" edge="1" parent="1" source="aLbBH-RCHJ9UTwngSTmA-7" target="aLbBH-RCHJ9UTwngSTmA-5">
          <mxGeometry width="50" height="50" relative="1" as="geometry">
            <mxPoint x="510" y="228" as="sourcePoint" />
            <mxPoint x="530" y="128" as="targetPoint" />
            <Array as="points">
              <mxPoint x="510" y="248" />
              <mxPoint x="520" y="228" />
              <mxPoint x="560" y="218" />
            </Array>
          </mxGeometry>
        </mxCell>
        <mxCell id="aLbBH-RCHJ9UTwngSTmA-9" value="" style="endArrow=classic;html=1;entryX=0;entryY=0.5;entryDx=0;entryDy=0;" edge="1" parent="1" target="aLbBH-RCHJ9UTwngSTmA-5">
          <mxGeometry width="50" height="50" relative="1" as="geometry">
            <mxPoint x="300" y="168" as="sourcePoint" />
            <mxPoint x="320" y="158" as="targetPoint" />
          </mxGeometry>
        </mxCell>
        <mxCell id="aLbBH-RCHJ9UTwngSTmA-10" value="&lt;b&gt;Update(time)&lt;/b&gt;" style="rounded=0;whiteSpace=wrap;html=1;fillColor=#1ba1e2;strokeColor=#006EAF;fontColor=#ffffff;" vertex="1" parent="1">
          <mxGeometry x="200" y="148" width="100" height="40" as="geometry" />
        </mxCell>
        <mxCell id="aLbBH-RCHJ9UTwngSTmA-12" value="&lt;b&gt;Systick Timer&lt;/b&gt;" style="rounded=0;whiteSpace=wrap;html=1;fillColor=#1ba1e2;strokeColor=#006EAF;fontColor=#ffffff;" vertex="1" parent="1">
          <mxGeometry x="200" y="208" width="100" height="40" as="geometry" />
        </mxCell>
        <mxCell id="aLbBH-RCHJ9UTwngSTmA-13" value="" style="endArrow=classic;html=1;exitX=0.5;exitY=0;exitDx=0;exitDy=0;" edge="1" parent="1" source="aLbBH-RCHJ9UTwngSTmA-12" target="aLbBH-RCHJ9UTwngSTmA-10">
          <mxGeometry width="50" height="50" relative="1" as="geometry">
            <mxPoint x="250" y="218" as="sourcePoint" />
            <mxPoint x="300" y="168" as="targetPoint" />
          </mxGeometry>
        </mxCell>
        <mxCell id="aLbBH-RCHJ9UTwngSTmA-16" value="" style="endArrow=none;dashed=1;html=1;dashPattern=1 3;strokeWidth=2;" edge="1" parent="1">
          <mxGeometry width="50" height="50" relative="1" as="geometry">
            <mxPoint x="177.5" y="268" as="sourcePoint" />
            <mxPoint x="322.5" y="268" as="targetPoint" />
          </mxGeometry>
        </mxCell>
        <mxCell id="aLbBH-RCHJ9UTwngSTmA-17" value="" style="endArrow=none;dashed=1;html=1;dashPattern=1 3;strokeWidth=2;" edge="1" parent="1">
          <mxGeometry width="50" height="50" relative="1" as="geometry">
            <mxPoint x="180" y="268" as="sourcePoint" />
            <mxPoint x="180" y="128" as="targetPoint" />
          </mxGeometry>
        </mxCell>
        <mxCell id="aLbBH-RCHJ9UTwngSTmA-18" value="" style="endArrow=none;dashed=1;html=1;dashPattern=1 3;strokeWidth=2;" edge="1" parent="1">
          <mxGeometry width="50" height="50" relative="1" as="geometry">
            <mxPoint x="320" y="128" as="sourcePoint" />
            <mxPoint x="175" y="128" as="targetPoint" />
          </mxGeometry>
        </mxCell>
        <mxCell id="aLbBH-RCHJ9UTwngSTmA-21" value="" style="endArrow=none;dashed=1;html=1;dashPattern=1 3;strokeWidth=2;" edge="1" parent="1">
          <mxGeometry width="50" height="50" relative="1" as="geometry">
            <mxPoint x="320" y="268" as="sourcePoint" />
            <mxPoint x="320" y="128" as="targetPoint" />
          </mxGeometry>
        </mxCell>
        <mxCell id="aLbBH-RCHJ9UTwngSTmA-22" value="Interrupt" style="text;html=1;align=center;verticalAlign=middle;resizable=0;points=[];autosize=1;strokeColor=none;" vertex="1" parent="1">
          <mxGeometry x="260" y="108" width="60" height="20" as="geometry" />
        </mxCell>
        <mxCell id="aLbBH-RCHJ9UTwngSTmA-24" value="&lt;b&gt;ISR_EXT0&lt;/b&gt;" style="ellipse;whiteSpace=wrap;html=1;fillColor=#0050ef;strokeColor=#001DBC;fontColor=#ffffff;" vertex="1" parent="1">
          <mxGeometry x="260" y="320" width="120" height="40" as="geometry" />
        </mxCell>
        <mxCell id="aLbBH-RCHJ9UTwngSTmA-25" value="" style="endArrow=classic;html=1;exitX=0.5;exitY=1;exitDx=0;exitDy=0;" edge="1" parent="1" source="aLbBH-RCHJ9UTwngSTmA-24">
          <mxGeometry width="50" height="50" relative="1" as="geometry">
            <mxPoint x="300" y="340" as="sourcePoint" />
            <mxPoint x="320" y="380" as="targetPoint" />
          </mxGeometry>
        </mxCell>
        <mxCell id="aLbBH-RCHJ9UTwngSTmA-27" value="&lt;b&gt;TT = 1&amp;nbsp; ?&lt;/b&gt;" style="rhombus;whiteSpace=wrap;html=1;fillColor=#1ba1e2;strokeColor=#006EAF;fontColor=#ffffff;" vertex="1" parent="1">
          <mxGeometry x="260" y="380" width="120" height="80" as="geometry" />
        </mxCell>
        <mxCell id="aLbBH-RCHJ9UTwngSTmA-28" value="" style="endArrow=classic;html=1;exitX=1;exitY=0.5;exitDx=0;exitDy=0;" edge="1" parent="1" source="aLbBH-RCHJ9UTwngSTmA-27">
          <mxGeometry width="50" height="50" relative="1" as="geometry">
            <mxPoint x="320" y="420" as="sourcePoint" />
            <mxPoint x="410" y="420" as="targetPoint" />
          </mxGeometry>
        </mxCell>
        <mxCell id="aLbBH-RCHJ9UTwngSTmA-29" value="&lt;b&gt;TT = 1;&lt;br&gt;pre_time = HAL_gettick();&lt;br&gt;time = 0;&lt;br&gt;&lt;/b&gt;" style="rounded=0;whiteSpace=wrap;html=1;fillColor=#1ba1e2;strokeColor=#006EAF;fontColor=#ffffff;" vertex="1" parent="1">
          <mxGeometry x="410" y="390" width="150" height="60" as="geometry" />
        </mxCell>
        <mxCell id="aLbBH-RCHJ9UTwngSTmA-30" value="" style="endArrow=classic;html=1;exitX=0.5;exitY=1;exitDx=0;exitDy=0;" edge="1" parent="1" source="aLbBH-RCHJ9UTwngSTmA-27" target="aLbBH-RCHJ9UTwngSTmA-31">
          <mxGeometry width="50" height="50" relative="1" as="geometry">
            <mxPoint x="440" y="450" as="sourcePoint" />
            <mxPoint x="320" y="480" as="targetPoint" />
          </mxGeometry>
        </mxCell>
        <mxCell id="aLbBH-RCHJ9UTwngSTmA-31" value="&lt;b&gt;time = HAL_gettick() - pre_time();&lt;/b&gt;" style="rounded=0;whiteSpace=wrap;html=1;fillColor=#1ba1e2;strokeColor=#006EAF;fontColor=#ffffff;" vertex="1" parent="1">
          <mxGeometry x="240" y="490" width="160" height="40" as="geometry" />
        </mxCell>
        <mxCell id="aLbBH-RCHJ9UTwngSTmA-32" value="No" style="text;html=1;align=center;verticalAlign=middle;resizable=0;points=[];autosize=1;strokeColor=none;" vertex="1" parent="1">
          <mxGeometry x="370" y="400" width="30" height="20" as="geometry" />
        </mxCell>
        <mxCell id="aLbBH-RCHJ9UTwngSTmA-33" value="Yes" style="text;html=1;align=center;verticalAlign=middle;resizable=0;points=[];autosize=1;strokeColor=none;" vertex="1" parent="1">
          <mxGeometry x="310" y="460" width="40" height="20" as="geometry" />
        </mxCell>
        <mxCell id="aLbBH-RCHJ9UTwngSTmA-34" value="" style="endArrow=classic;html=1;exitX=0.5;exitY=1;exitDx=0;exitDy=0;" edge="1" parent="1" source="aLbBH-RCHJ9UTwngSTmA-31">
          <mxGeometry width="50" height="50" relative="1" as="geometry">
            <mxPoint x="380" y="590" as="sourcePoint" />
            <mxPoint x="320" y="560" as="targetPoint" />
          </mxGeometry>
        </mxCell>
        <mxCell id="aLbBH-RCHJ9UTwngSTmA-35" value="&lt;b&gt;Return from ISR&lt;/b&gt;" style="rounded=0;whiteSpace=wrap;html=1;fillColor=#1ba1e2;strokeColor=#006EAF;fontColor=#ffffff;" vertex="1" parent="1">
          <mxGeometry x="260" y="560" width="120" height="40" as="geometry" />
        </mxCell>
        <mxCell id="aLbBH-RCHJ9UTwngSTmA-36" value="" style="edgeStyle=elbowEdgeStyle;elbow=horizontal;endArrow=classic;html=1;" edge="1" parent="1">
          <mxGeometry width="50" height="50" relative="1" as="geometry">
            <mxPoint x="560" y="420" as="sourcePoint" />
            <mxPoint x="380" y="580" as="targetPoint" />
            <Array as="points">
              <mxPoint x="580" y="510" />
            </Array>
          </mxGeometry>
        </mxCell>
      </root>
    </mxGraphModel>
  </diagram>
</mxfile>
